# xmcd
#
# Track frame offsets: 
#        150
#        25252
#        43798
#        64671
#        84656
#        106977
#        134430
#        160061
#        178387
#
# Disc length: 2594 seconds
#
# Revision: 0
# Processed by: cddbd v1.5.1PL0 Copyright (c) Steve Scherf et al.
# Submitted via: ExactAudioCopy v0.95b2
#
DISCID=780a2009
DTITLE=Gaye Delorme - Guitar House 106
DYEAR=2002
DGENRE=Blues
TTITLE0=Raphaels Lullaby
TTITLE1=Hope Thats Allright
TTITLE2=London Town
TTITLE3=Island Girl
TTITLE4=Lompa Prison Blues
TTITLE5=Lyin' Like That
TTITLE6=Beautiful
TTITLE7=Down So Long
TTITLE8=The Cathedral
EXTD=
EXTT0=
EXTT1=
EXTT2=
EXTT3=
EXTT4=
EXTT5=
EXTT6=
EXTT7=
EXTT8=
PLAYORDER=
